<?xml version="1.0" encoding="utf-8"?>
<!-- Generator: Adobe Illustrator 14.0.0, SVG Export Plug-In . SVG Version: 6.00 Build 43363)  -->
<!DOCTYPE svg PUBLIC "-//W3C//DTD SVG 1.1//EN" "http://www.w3.org/Graphics/SVG/1.1/DTD/svg11.dtd">
<svg version="1.1" id="Layer_1" xmlns="http://www.w3.org/2000/svg" xmlns:xlink="http://www.w3.org/1999/xlink" x="0px" y="0px"
	 width="250px" height="103px" viewBox="0 0 250 103" enable-background="new 0 0 250 103" xml:space="preserve">
<path fill="#ED1C24" d="M223.414,50.421c-0.951,1.278-2.84,2.516-1.985,4.227c1.175,0.741,2.575-0.08,3.624-0.665
	c2.417-1.751,4.389-4.275,4.554-7.127l-0.246-0.002C227.264,47.775,225.236,48.871,223.414,50.421 M202.111,54.935
	c0.064,0.625,0.759,0.944,1.387,0.811c3.383-0.945,5.734-4.073,6.491-7.268c0,0,0.127-0.242-0.069-0.5
	c-0.198-0.257-0.656-0.133-0.656-0.133C206.263,49.07,202.875,51.355,202.111,54.935z M178.984,33.54
	c5.188-4.098,11.106-9.233,14.537-14.873c1.029-1.691,2.239-4.749,2.206-5.641c-0.029-0.894-0.045-0.837-0.255-1.189
	c-0.236-0.185-0.411-0.251-1.109-0.011c-0.793,0.272-2.521,1.818-3.731,2.917C185.639,20.547,182.037,26.92,178.984,33.54z
	 M102.323,61.37c-0.887,2.01-2.546,4.466-1.034,6.705c0.692,0.391,1.532,0.085,2.193-0.049c4.159-1.98,7.502-6.304,9.555-10.183
	c0.639-1.42,1.737-3.57,0.286-5.009c-1.593-0.674-3.202,0.25-4.498,1.18C106.059,55.903,103.946,58.775,102.323,61.37z
	 M58.052,66.202c7.604-2.019,15.202-3.276,23.245-4.113l1.727-2.385c3.365-6.476,7.538-14.583,3.778-22.099
	c-1.229-2.723-4.106-4.001-6.465-4.927L58.052,66.202z M26.531,89.14c0.234,1.219,1.554,1.684,2.559,1.969
	c8.93,1.688,22.618-3.769,32.275-9.775c6.125-4.156,12.793-9.587,17.474-15.6c-8.432,1.317-16.882,3.461-24.701,6.245l-6.451,9.584
	c-1.199,1.833-2.82,4.395-5.324,4.096c-0.799-0.217-1.099-0.925-0.785-1.782l5.127-9.385c-5.373,1.795-10.545,4.081-15.238,7.556
	C29.137,83.89,26.316,85.971,26.531,89.14z M15.854,28.601c18.505-6.833,39.181-11.246,60.519-8.138l2.329-3.772
	c4.391-0.691,8.883-1.279,13.273-1.729l-5.925,8.963c5.757,2.485,10.607,8.479,11.076,14.814c0.031,8.527-3.843,15.67-8.32,22.313
	l6.184-0.791c4.358-6.948,16.356-15.978,21.619-9.068c0,0-0.788-1.154,0,0l1.798-2.455l8.046-1.078l-10.207,17.277
	c-0.071,0.274,0.024,0.726,0.498,0.674c2.429-1.076,4.575-2.82,6.495-4.582c4.899-4.493,9.131-9.455,12.311-14.787l7.695-0.836
	l-4.31,7.549c3.608-2.823,7.23-7.003,11.561-8.81c1.154-0.511,2.576-0.116,3.617,0.38c1,0.844,1.34,1.926,1.293,3.213
	c-1.572,4.859-4.984,8.936-7.461,13.438c-0.103,0.368-0.214,0.728,0.272,0.871c6.116-3.113,12.141-9.021,16.538-14.619l-7.059,0.851
	l2.583-4.848l6.619-0.64c8.186-12.873,16.242-27.071,29.549-36.456c1.711-0.784,4.056-2.329,5.815-0.574
	c1.543,2.729-0.226,5.808-1.291,8.306c-5.587,10.322-16.551,18.681-25.733,25.978l-0.748,1.77l15.643-1.742
	c0.311,0.142,0.201,0.731,0.096,0.974c-5.118,4.272-10.591,9.166-11.274,15.699c-0.219,1.114,0.576,1.782,1.407,2.242
	c3.716,0.902,6.198-2.805,8.605-5.25c1.376-1.764,3.28-3.704,3.915-5.82c-1.307-0.587-2.122-2.291-2.048-3.463
	c0.232-2.957,1.569-5.546,4.021-7.333c0.835-0.542,2.061-0.748,3.063-0.322c0.729,0.493,1.592,1.232,1.688,2.138
	c0.359,2.579-0.715,4.783-1.661,6.947c5.158-0.827,9.468-4.338,13.569-7.992l0.531-0.796c0.168-3.513,0.824-6.917,3.629-9.224
	c1.4-0.963,3.22-2.303,4.953-1.105c1.264,0.602,0.866,3.348,0.866,3.348c-0.701,3.463-7.132,5.824-5.931,10.806
	c0.156,0.661-0.328,1.528,0.33,1.845c5.232-1.344,10.299-3.807,15.122-6.199c0.5-1.459,0.026-3.063,0.491-4.521
	c0.719-2.673,2.414-5.547,5.174-6.74c0.871-0.236,1.847-0.298,2.644,0.127c1.001,0.879,1.442,2.171,0.945,3.454
	c-0.519,3.336-3.356,5.817-5.71,8.232c-0.642,5.666,1.536,11.394-0.666,16.487c-2.269,4.611-7.125,6.934-11.998,7.137
	c-1.946-0.156-4.133-0.839-4.812-2.93c-1.15-3.907,1.663-7.26,4.678-9.599c2.629-2.17,5.596-3.467,8.602-4.763
	c1.123-0.966,1.043-2.904,0.847-4.193c-2.693,1.307-5.88,2.758-8.813,3.95l-6.574,2.57c-0.083,5.532-1.55,11.244-6.449,14.229
	c-3.108,1.434-7.682,3.135-10.861,0.634c-1.451-1.228-1.571-3.318-1.174-4.95c1.762-6.562,8.914-8.656,14.016-11.257
	c0.775-1.001,0.51-2.396,0.311-3.443c-4.452,3.79-9.973,7.135-15.718,7.642c-4.162,6.366-10.691,15.584-19.349,14.987
	c-1.532,0.019-2.742-0.721-3.85-1.634c-2.41-2.773-1.086-6.972,0.33-9.776c1.451-2.945,4.256-5.253,6.436-7.704
	c-2.474,0.15-7.226,0.866-7.226,0.866l-12.758,23.735l3.622-0.213l20.479-2.05l24.826-1.625l27.814-1.079
	c2.156-0.154,4.454-0.033,6.683-0.047l-4.979,4.377c2.247,1.583,4.598,3.31,7.022,4.653l-0.071,0.175l-20.038-0.697l-24.987,0.232
	l-32.479,1.389c-3.693,0.384-7.484,0.527-11.212,0.771l-7.071,12.851l-8.671,0.619L147.749,76l0.186-0.321l-16.165,0.982
	l-29.605,2.907l-24.109,3.131c0.739-0.934,0.86-2.742,2.494-2.693l31.716-5.395l19.335-2.548l19.539-1.949l6.255-10.806
	c-0.311-0.314-0.616,0.029-0.873,0.239c-4.138,3.51-8.376,6.814-13.57,7.677c-1.007-0.08-1.873-0.469-2.633-1.104
	c-2.298-3.987,2.363-8.517,3.631-10.852c0,0,1.402-2.164,2.312-4.208c0,0,0.125-0.16-0.031-0.347
	c-0.161-0.19-0.404-0.066-0.404-0.066c-6.134,5.028-12.221,11.24-16.453,17.675c-2.338,0.13-4.631,0.34-6.897,0.634
	c0.819-2.15,2.005-4.483,3.225-6.582c-3.818,2.889-7.501,6.163-11.795,7.828c-1.188,0.479-3.66,0.737-5.198-2.411
	c-4.202,3.027-9.004,6.849-14.412,4.714c-1.418-1.057-1.891-2.662-2.019-4.334c-0.045-1.565,0.333-3.051,0.902-4.368l0.054,0.005
	l-6.69,0.651C71.961,80.27,54.343,92.306,34.574,96.794c-5.509,1.101-11.987,1.916-17.646,0.474
	c-1.909-0.538-3.879-2.225-4.278-4.283c-0.132-5.047,4.566-8.938,8.487-11.651c8.924-5.806,18.666-9.549,28.681-12.626l1.624-2.666
	L71.083,30.23h0.114C47.208,27.622,25.881,36.414,6.68,47.312L5,48.167L15.854,28.601z"/>
</svg>
